<svg xmlns="http://www.w3.org/2000/svg" viewBox="0 0 48 48" width="48" height="48">
  <defs>
    <linearGradient id="arrow" x1="0.5" y1="0" x2="0.5" y2="1">
      <stop offset="0%" stop-color="#EF5350"/>
      <stop offset="100%" stop-color="#B71C1C"/>
    </linearGradient>
  </defs>

  <!-- Dark outline/shadow layer -->
  <path d="M10 38 C10 22 14 16 28 16 L28 8 L42 20 L28 32 L28 24 C18 24 14 26 12 38 Z"
        fill="#3A1111" transform="translate(0.8,0.8)"/>

  <!-- Main arrow -->
  <path d="M10 38 C10 22 14 16 28 16 L28 8 L42 20 L28 32 L28 24 C18 24 14 26 12 38 Z"
        fill="url(#arrow)"/>

  <!-- Highlight shine -->
  <path d="M14 34 C14 22 17 18 28 18 L28 12 L38 20 L28 28 L28 24 C20 24 16 25 14 34 Z"
        fill="#FF7043" opacity="0.4"/>
</svg>
